<svg width="84" height="59" viewBox="0 0 84 59" fill="none" xmlns="http://www.w3.org/2000/svg">
<path d="M20.6092 0.0455093H36.4294V13.4013H23.3266C18.8066 13.4013 18.2685 17.3946 18.5645 19.3912C18.2631 25.3271 24.9858 25.8218 28.3848 25.3271V38.2782L17.9725 59H0L12.7799 36.2546C6.20756 33.8603 4.10196 28.757 3.44958 27.1758L3.44384 27.1619C2.79812 25.597 2.07169 20.1467 2.20621 18.3389C2.34074 16.5312 1.88335 9.54298 6.67244 4.44349C10.5037 0.363891 17.56 -0.18833 20.6092 0.0455093Z" fill="#FFB500"/>
<path fill-rule="evenodd" clip-rule="evenodd" d="M36.4832 0.0452255H67.0473C72.527 -0.323521 83.5777 2.16597 83.9436 15.0739C84.401 31.2088 82.0872 33.826 76.5717 36.5511C75.056 37.1717 70.3297 38.3859 63.5497 38.278C56.7696 38.17 42.6803 38.233 36.4832 38.278V0.0452255ZM36.4832 44.9424H50.4738V58.9997H36.4832V44.9424ZM50.3662 13.3675V25.2394H61.3165C65.6482 25.2394 68.1245 25.022 68.258 19.8431C68.4154 13.7407 64.1493 13.5104 61.6913 13.3777C61.6279 13.3743 61.5657 13.3709 61.5049 13.3675H50.3662Z" fill="white"/>
<path d="M55.542 49.7106H53.6345V54.6221H52.6624V49.7106H50.7916V48.9202H55.542V49.7106Z" fill="white"/>
<path d="M58.4112 53.194L59.7354 48.9202H60.7759L58.49 55.5022C58.1362 56.4507 57.5739 56.925 56.8032 56.925L56.6193 56.9092L56.2567 56.8407V56.0502L56.5194 56.0713C56.8488 56.0713 57.1045 56.0046 57.2867 55.8711C57.4723 55.7376 57.6247 55.4934 57.7438 55.1385L57.9593 54.5589L55.9309 48.9202H56.9924L58.4112 53.194Z" fill="white"/>
<path d="M61.3066 53.8264L61.643 53.41C62.0213 52.9182 62.2368 52.1804 62.2893 51.1967L62.3786 48.9202H66.0413V53.8264H66.7717V56.2979H65.7996V54.6221H61.8321V56.2979H60.86L60.8652 53.8264H61.3066ZM62.4575 53.8264H65.0691V49.8213H63.3193L63.2615 51.1809C63.2019 52.3157 62.9339 53.1975 62.4575 53.8264Z" fill="white"/>
<path d="M71.5274 48.9202H72.4996V54.6221H71.5274V50.4642L68.9052 54.6221H67.9331V48.9202H68.9052V53.0833L71.5274 48.9202Z" fill="white"/>
<path d="M78.406 48.9202V54.6221H77.4286V52.4035H75.9625L74.6225 54.6221H73.5716L75.0009 52.256C74.6365 52.1225 74.3563 51.9169 74.1601 51.6394C73.9674 51.3583 73.8711 51.0316 73.8711 50.6592C73.8711 50.1393 74.0655 49.7212 74.4544 49.405C74.8432 49.0853 75.3635 48.9237 76.0151 48.9202H78.406ZM74.8485 50.6697C74.8485 50.9473 74.9431 51.1721 75.1322 51.3443C75.3214 51.5129 75.5719 51.599 75.8837 51.6025H77.4286V49.7106H76.0308C75.67 49.7106 75.3827 49.8002 75.169 49.9794C74.9553 50.1551 74.8485 50.3852 74.8485 50.6697Z" fill="white"/>
<path d="M47.0867 53.9317C47.4335 53.9317 47.7365 53.8263 47.9958 53.6155C48.255 53.4047 48.3987 53.1412 48.4267 52.825H49.3463C49.3288 53.1518 49.2167 53.4627 49.01 53.7578C48.8033 54.0529 48.5265 54.2883 48.1797 54.4639C47.8364 54.6396 47.472 54.7274 47.0867 54.7274C46.3125 54.7274 45.6959 54.4692 45.237 53.9528C44.7815 53.4328 44.5538 52.7231 44.5538 51.8238V51.6604C44.5538 51.1053 44.6554 50.6117 44.8586 50.1796C45.0618 49.7475 45.3526 49.4119 45.7309 49.173C46.1128 48.9341 46.563 48.8147 47.0814 48.8147C47.719 48.8147 48.248 49.0062 48.6684 49.3891C49.0923 49.772 49.3183 50.2692 49.3463 50.8805H48.4267C48.3987 50.5116 48.2585 50.2094 48.0063 49.9741C47.7576 49.7352 47.4493 49.6157 47.0814 49.6157C46.5875 49.6157 46.2039 49.7949 45.9306 50.1532C45.6609 50.5081 45.526 51.0228 45.526 51.6973V51.8817C45.526 52.5387 45.6609 53.0446 45.9306 53.3994C46.2004 53.7543 46.5857 53.9317 47.0867 53.9317Z" fill="#2A2A2A"/>
</svg>
