<svg width="337" height="236" viewBox="0 0 337 236" fill="none" xmlns="http://www.w3.org/2000/svg">
<path d="M82.6712 0.182037H146.132V53.6053H93.5717C75.4401 53.6053 73.2816 69.5783 74.4688 77.5648C73.26 101.309 100.227 103.287 113.862 101.309V153.113L72.0944 236H0L51.2648 145.018C24.9008 135.441 16.4545 115.028 13.8375 108.703L13.8145 108.647C11.2243 102.388 8.31029 80.5868 8.84992 73.3557C9.38955 66.1247 7.55481 38.1719 26.7656 17.7739C42.1342 1.45556 70.4396 -0.75332 82.6712 0.182037Z" fill="#FFB500"/>
<path fill-rule="evenodd" clip-rule="evenodd" d="M146.347 0.182184H268.951C290.932 -1.2928 335.261 8.66515 336.728 60.2969C338.563 124.836 329.282 135.305 307.157 146.206C301.077 148.688 282.118 153.545 254.921 153.113C227.723 152.681 171.206 152.933 146.347 153.113V0.182184ZM146.347 179.771H202.469V236H146.347V179.771ZM202.037 53.4704V100.958H245.963C263.339 100.958 273.272 100.088 273.808 79.3726C274.439 54.9633 257.326 54.042 247.466 53.5111C247.212 53.4974 246.963 53.484 246.718 53.4704H202.037Z" fill="white"/>
</svg>
